<svg xmlns="http://www.w3.org/2000/svg" xmlns:xlink="http://www.w3.org/1999/xlink" width="100" zoomAndPan="magnify" viewBox="0 0 75 44.999999" height="60" preserveAspectRatio="xMidYMid meet" version="1.0"><defs><clipPath id="49ba1239bd"><path d="M 1 3.074219 L 26 3.074219 L 26 30 L 1 30 Z M 1 3.074219 " clip-rule="nonzero"/></clipPath><clipPath id="23705a6a20"><path d="M 28.410156 31.824219 L 29.777344 31.824219 L 29.777344 34.65625 L 28.410156 34.65625 Z M 28.410156 31.824219 " clip-rule="nonzero"/></clipPath><clipPath id="874d6b37c8"><path d="M 7.792969 10.484375 L 26.960938 10.484375 L 26.960938 38.1875 L 7.792969 38.1875 Z M 7.792969 10.484375 " clip-rule="nonzero"/></clipPath></defs><g clip-path="url(#49ba1239bd)"><path fill="#ffffff" d="M 21.6875 9.171875 C 21.597656 9.5625 22.5625 9.734375 22.863281 9.460938 C 24.003906 8.417969 25.371094 7.203125 25.535156 5.664062 C 25.621094 4.832031 23.925781 3.730469 23.386719 4.371094 C 22.316406 5.671875 22.042969 7.640625 21.6875 9.171875 M 15.953125 9.035156 C 15.570312 7.21875 16.464844 5.230469 15.769531 3.785156 C 15.410156 3.042969 12.820312 3.386719 12.882812 4.210938 C 13.019531 6.007812 13.933594 7.75 14.570312 9.171875 C 14.765625 9.59375 16.042969 9.484375 15.953125 9.035156 Z M 8.898438 12.570312 C 7.582031 11.207031 7.015625 9.390625 5.882812 8.828125 C 4.996094 8.394531 3.417969 9.988281 3.773438 10.914062 C 4.339844 12.40625 6.195312 13.144531 7.714844 13.632812 C 8.21875 13.800781 9.265625 12.957031 8.898438 12.570312 Z M 5.882812 19.5625 C 4.425781 19.257812 2.726562 19.078125 1.421875 19.796875 C 0.8125 20.128906 1 21.789062 1.695312 21.863281 C 3.109375 22.019531 4.671875 21.28125 6.050781 20.75 C 6.417969 20.605469 6.277344 19.644531 5.882812 19.5625 Z M 7.945312 26.410156 C 6.847656 27.027344 5.394531 27.21875 4.652344 27.949219 C 4.171875 28.414062 5.152344 29.835938 5.78125 29.601562 C 6.875 29.199219 7.75 27.988281 8.582031 27.230469 C 8.835938 27 8.242188 26.238281 7.945312 26.410156 Z M 7.945312 26.410156 " fill-opacity="1" fill-rule="evenodd"/></g><g clip-path="url(#23705a6a20)"><path fill="#ffffff" d="M 28.710938 34.453125 C 29.386719 33.902344 29.859375 33.425781 29.859375 33.167969 C 29.859375 32.910156 29.292969 32.460938 28.476562 31.957031 C 28.496094 32.042969 28.519531 32.128906 28.539062 32.214844 C 28.667969 32.855469 28.71875 33.523438 28.71875 34.164062 C 28.71875 34.265625 28.71875 34.359375 28.710938 34.453125 " fill-opacity="1" fill-rule="evenodd"/></g><path fill="#ffffff" d="M 24.121094 29.632812 C 24.917969 30.226562 24.660156 31.308594 24.253906 32.105469 C 24.953125 33.140625 24.929688 34.171875 24.289062 35.027344 C 24.921875 36.136719 24.75 36.632812 24.507812 37.261719 C 25.140625 36.78125 26.636719 36.046875 27.964844 35.039062 C 28.023438 34.746094 28.0625 34.460938 28.0625 34.164062 C 28.0625 33.558594 28.011719 32.9375 27.890625 32.351562 C 27.824219 32.042969 27.738281 31.738281 27.621094 31.453125 C 26.398438 30.765625 25.199219 30.0625 24.121094 29.632812 " fill-opacity="1" fill-rule="evenodd"/><g clip-path="url(#874d6b37c8)"><path fill="#ffffff" d="M 15.160156 35.082031 C 14.609375 35.054688 14.1875 34.589844 14.214844 34.039062 C 14.238281 33.492188 14.703125 33.066406 15.25 33.097656 C 18.023438 33.230469 20.121094 32.972656 22.21875 32.71875 C 22.335938 32.703125 22.320312 32.707031 22.636719 32.667969 C 23.179688 32.601562 23.671875 32.992188 23.738281 33.535156 C 23.804688 34.078125 23.414062 34.574219 22.867188 34.640625 C 22.828125 34.644531 22.851562 34.640625 22.457031 34.691406 L 22.453125 34.691406 C 20.261719 34.953125 18.074219 35.222656 15.160156 35.082031 M 16.09375 38.347656 C 15.542969 38.347656 15.097656 37.910156 15.097656 37.363281 C 15.097656 36.8125 15.542969 36.367188 16.09375 36.359375 C 16.195312 36.359375 16.3125 36.359375 16.433594 36.359375 C 16.691406 36.355469 16.988281 36.347656 17.308594 36.332031 C 17.570312 36.316406 17.886719 36.296875 18.234375 36.269531 C 19.757812 36.152344 21.320312 35.9375 22.40625 35.632812 C 22.933594 35.484375 23.480469 35.800781 23.625 36.324219 C 23.773438 36.851562 23.464844 37.398438 22.9375 37.542969 C 21.679688 37.886719 19.984375 38.132812 18.382812 38.257812 C 18.09375 38.277344 17.765625 38.296875 17.40625 38.3125 C 17.101562 38.328125 16.789062 38.339844 16.464844 38.34375 C 16.347656 38.347656 16.222656 38.347656 16.09375 38.347656 Z M 26.792969 17.355469 C 26.996094 18.636719 25.03125 18.957031 24.824219 17.671875 C 24.035156 13.839844 20.605469 12.304688 17.289062 12.578125 C 14.175781 12.828125 10.925781 15 10.144531 18.046875 C 9.742188 19.636719 10.085938 21.464844 10.949219 22.851562 C 11.765625 24.148438 12.921875 24.917969 14.054688 26.148438 C 14.25 26.355469 14.425781 26.578125 14.585938 26.816406 C 15.09375 27.554688 15.453125 28.414062 15.613281 29.269531 C 15.710938 29.796875 15.835938 29.933594 16.109375 29.957031 C 18.109375 30.140625 20.546875 30.023438 22.5 29.613281 C 23.03125 29.503906 23.554688 29.847656 23.667969 30.382812 C 23.78125 30.917969 23.4375 31.445312 22.898438 31.554688 C 21.628906 31.828125 19.230469 31.996094 17.023438 31.929688 C 16.558594 31.917969 16.136719 31.898438 15.753906 31.871094 C 15.03125 31.8125 13.539062 31.839844 13.703125 30.625 C 13.8125 29.785156 13.519531 28.769531 12.953125 27.945312 C 11.6875 26.097656 10.054688 25.363281 8.984375 23.398438 C 8.113281 21.796875 7.773438 19.765625 8.121094 17.980469 C 8.945312 13.761719 13.316406 10.757812 17.628906 10.578125 C 21.820312 10.402344 25.992188 12.582031 26.792969 17.355469 Z M 26.792969 17.355469 " fill-opacity="1" fill-rule="evenodd"/></g><path fill="#ffffff" d="M 23.160156 20.484375 C 23.511719 20.382812 23.960938 20.289062 24.511719 20.203125 C 25.0625 20.113281 25.640625 20.074219 26.246094 20.074219 C 26.859375 20.074219 27.371094 20.152344 27.773438 20.3125 C 28.183594 20.472656 28.507812 20.699219 28.746094 20.992188 C 28.988281 21.289062 29.15625 21.636719 29.257812 22.035156 C 29.359375 22.441406 29.40625 22.890625 29.40625 23.386719 L 29.40625 27.472656 L 27.359375 27.472656 L 27.359375 23.632812 C 27.359375 22.972656 27.269531 22.507812 27.097656 22.234375 C 26.917969 21.953125 26.59375 21.820312 26.121094 21.820312 C 25.972656 21.820312 25.816406 21.824219 25.65625 21.839844 C 25.488281 21.847656 25.339844 21.867188 25.210938 21.890625 L 25.210938 27.472656 L 23.160156 27.472656 Z M 23.160156 20.484375 " fill-opacity="1" fill-rule="nonzero"/><path fill="#ffffff" d="M 32.570312 18.433594 L 34.617188 18.105469 L 34.617188 20.234375 L 37.082031 20.234375 L 37.082031 21.945312 L 34.617188 21.945312 L 34.617188 24.488281 C 34.617188 24.917969 34.695312 25.261719 34.84375 25.519531 C 34.996094 25.773438 35.304688 25.90625 35.761719 25.90625 C 35.984375 25.90625 36.210938 25.886719 36.445312 25.839844 C 36.675781 25.800781 36.890625 25.742188 37.082031 25.667969 L 37.371094 27.265625 C 37.121094 27.367188 36.847656 27.453125 36.546875 27.523438 C 36.242188 27.601562 35.871094 27.640625 35.433594 27.640625 C 34.871094 27.640625 34.410156 27.566406 34.042969 27.414062 C 33.675781 27.261719 33.382812 27.046875 33.160156 26.777344 C 32.945312 26.507812 32.785156 26.179688 32.699219 25.792969 C 32.613281 25.410156 32.570312 24.984375 32.570312 24.515625 Z M 32.570312 18.433594 " fill-opacity="1" fill-rule="nonzero"/><path fill="#ffffff" d="M 46.296875 27.226562 C 45.949219 27.328125 45.5 27.417969 44.945312 27.503906 C 44.402344 27.59375 43.824219 27.640625 43.21875 27.640625 C 42.601562 27.640625 42.089844 27.554688 41.683594 27.394531 C 41.273438 27.226562 40.949219 26.992188 40.714844 26.695312 C 40.476562 26.394531 40.304688 26.042969 40.203125 25.628906 C 40.101562 25.21875 40.050781 24.761719 40.050781 24.265625 L 40.050781 20.234375 L 42.097656 20.234375 L 42.097656 24.019531 C 42.097656 24.675781 42.191406 25.15625 42.363281 25.449219 C 42.539062 25.742188 42.863281 25.890625 43.339844 25.890625 C 43.484375 25.890625 43.640625 25.886719 43.804688 25.871094 C 43.972656 25.855469 44.117188 25.839844 44.25 25.820312 L 44.25 20.234375 L 46.296875 20.234375 Z M 46.296875 27.226562 " fill-opacity="1" fill-rule="nonzero"/><path fill="#ffffff" d="M 49.53125 18.433594 L 51.578125 18.105469 L 51.578125 20.234375 L 54.042969 20.234375 L 54.042969 21.945312 L 51.578125 21.945312 L 51.578125 24.488281 C 51.578125 24.917969 51.65625 25.261719 51.804688 25.519531 C 51.957031 25.773438 52.261719 25.90625 52.722656 25.90625 C 52.9375 25.90625 53.167969 25.886719 53.398438 25.839844 C 53.636719 25.800781 53.851562 25.742188 54.042969 25.667969 L 54.332031 27.265625 C 54.082031 27.367188 53.808594 27.453125 53.503906 27.523438 C 53.203125 27.601562 52.832031 27.640625 52.394531 27.640625 C 51.832031 27.640625 51.367188 27.566406 51 27.414062 C 50.632812 27.261719 50.339844 27.046875 50.121094 26.777344 C 49.898438 26.507812 49.746094 26.179688 49.65625 25.792969 C 49.570312 25.410156 49.53125 24.984375 49.53125 24.515625 Z M 49.53125 18.433594 " fill-opacity="1" fill-rule="nonzero"/><path fill="#ffffff" d="M 63.851562 23.839844 C 63.851562 24.410156 63.765625 24.929688 63.597656 25.40625 C 63.433594 25.875 63.199219 26.28125 62.882812 26.613281 C 62.574219 26.949219 62.199219 27.207031 61.765625 27.394531 C 61.332031 27.574219 60.839844 27.664062 60.300781 27.664062 C 59.769531 27.664062 59.28125 27.574219 58.847656 27.394531 C 58.414062 27.207031 58.039062 26.949219 57.722656 26.613281 C 57.414062 26.28125 57.171875 25.875 56.996094 25.40625 C 56.824219 24.929688 56.738281 24.410156 56.738281 23.839844 C 56.738281 23.269531 56.824219 22.753906 57.007812 22.289062 C 57.183594 21.820312 57.429688 21.417969 57.746094 21.089844 C 58.0625 20.761719 58.441406 20.503906 58.878906 20.320312 C 59.3125 20.132812 59.789062 20.042969 60.300781 20.042969 C 60.824219 20.042969 61.300781 20.132812 61.734375 20.320312 C 62.175781 20.503906 62.542969 20.761719 62.859375 21.089844 C 63.171875 21.417969 63.414062 21.820312 63.585938 22.289062 C 63.757812 22.753906 63.851562 23.269531 63.851562 23.839844 Z M 61.761719 23.839844 C 61.761719 23.210938 61.628906 22.707031 61.375 22.347656 C 61.125 21.984375 60.765625 21.804688 60.300781 21.804688 C 59.828125 21.804688 59.46875 21.984375 59.210938 22.347656 C 58.953125 22.707031 58.828125 23.210938 58.828125 23.839844 C 58.828125 24.472656 58.953125 24.976562 59.210938 25.347656 C 59.46875 25.71875 59.828125 25.90625 60.300781 25.90625 C 60.765625 25.90625 61.125 25.71875 61.375 25.347656 C 61.628906 24.976562 61.761719 24.472656 61.761719 23.839844 Z M 61.761719 23.839844 " fill-opacity="1" fill-rule="nonzero"/><path fill="#ffffff" d="M 71.164062 22.050781 C 70.980469 22.003906 70.765625 21.960938 70.515625 21.910156 C 70.269531 21.859375 70 21.828125 69.71875 21.828125 C 69.589844 21.828125 69.4375 21.84375 69.261719 21.867188 C 69.082031 21.890625 68.945312 21.914062 68.851562 21.945312 L 68.851562 27.472656 L 66.804688 27.472656 L 66.804688 20.625 C 67.171875 20.492188 67.601562 20.371094 68.105469 20.261719 C 68.601562 20.144531 69.160156 20.082031 69.773438 20.082031 C 69.882812 20.082031 70.015625 20.09375 70.171875 20.105469 C 70.328125 20.117188 70.488281 20.140625 70.644531 20.160156 C 70.800781 20.183594 70.953125 20.210938 71.109375 20.246094 C 71.265625 20.277344 71.398438 20.316406 71.507812 20.363281 Z M 71.164062 22.050781 " fill-opacity="1" fill-rule="nonzero"/><path fill="#ffffff" d="M 65.554688 32.320312 C 65.355469 32.320312 65.183594 32.289062 65.035156 32.226562 C 64.886719 32.164062 64.761719 32.078125 64.660156 31.964844 C 64.554688 31.847656 64.476562 31.71875 64.425781 31.5625 C 64.382812 31.402344 64.355469 31.230469 64.355469 31.042969 C 64.355469 30.851562 64.382812 30.679688 64.4375 30.523438 C 64.492188 30.367188 64.566406 30.234375 64.667969 30.117188 C 64.769531 30.003906 64.890625 29.917969 65.039062 29.851562 C 65.183594 29.785156 65.347656 29.753906 65.523438 29.753906 C 65.636719 29.753906 65.746094 29.761719 65.851562 29.78125 C 65.964844 29.800781 66.070312 29.824219 66.171875 29.867188 L 66.070312 30.242188 C 66.003906 30.210938 65.929688 30.183594 65.84375 30.167969 C 65.757812 30.148438 65.664062 30.140625 65.570312 30.140625 C 65.320312 30.140625 65.132812 30.214844 65.003906 30.367188 C 64.875 30.523438 64.8125 30.746094 64.8125 31.042969 C 64.8125 31.175781 64.824219 31.296875 64.855469 31.410156 C 64.882812 31.515625 64.933594 31.609375 64.992188 31.6875 C 65.058594 31.769531 65.140625 31.828125 65.242188 31.875 C 65.34375 31.914062 65.46875 31.933594 65.609375 31.933594 C 65.726562 31.933594 65.832031 31.925781 65.921875 31.90625 C 66.019531 31.878906 66.097656 31.859375 66.144531 31.832031 L 66.207031 32.199219 C 66.183594 32.214844 66.144531 32.226562 66.101562 32.242188 C 66.054688 32.257812 66 32.269531 65.9375 32.277344 C 65.878906 32.292969 65.816406 32.300781 65.746094 32.308594 C 65.679688 32.3125 65.621094 32.320312 65.554688 32.320312 Z M 65.554688 32.320312 " fill-opacity="1" fill-rule="nonzero"/><path fill="#ffffff" d="M 66.683594 29.886719 C 66.777344 29.855469 66.914062 29.832031 67.078125 29.804688 C 67.242188 29.773438 67.4375 29.765625 67.648438 29.765625 C 67.804688 29.765625 67.9375 29.785156 68.042969 29.824219 C 68.15625 29.867188 68.246094 29.933594 68.316406 30.011719 C 68.335938 29.996094 68.371094 29.972656 68.417969 29.945312 C 68.46875 29.917969 68.523438 29.890625 68.59375 29.867188 C 68.664062 29.835938 68.742188 29.816406 68.828125 29.796875 C 68.90625 29.773438 69 29.765625 69.09375 29.765625 C 69.289062 29.765625 69.4375 29.789062 69.5625 29.847656 C 69.683594 29.898438 69.773438 29.976562 69.839844 30.078125 C 69.90625 30.179688 69.949219 30.300781 69.976562 30.4375 C 70 30.574219 70.011719 30.726562 70.011719 30.886719 L 70.011719 32.265625 L 69.574219 32.265625 L 69.574219 30.980469 C 69.574219 30.835938 69.566406 30.714844 69.550781 30.609375 C 69.539062 30.507812 69.511719 30.417969 69.46875 30.351562 C 69.433594 30.28125 69.378906 30.230469 69.3125 30.199219 C 69.246094 30.164062 69.15625 30.148438 69.050781 30.148438 C 68.902344 30.148438 68.78125 30.167969 68.6875 30.210938 C 68.589844 30.246094 68.523438 30.28125 68.492188 30.316406 C 68.511719 30.398438 68.535156 30.488281 68.542969 30.585938 C 68.558594 30.679688 68.5625 30.78125 68.5625 30.886719 L 68.5625 32.265625 L 68.128906 32.265625 L 68.128906 30.980469 C 68.128906 30.835938 68.117188 30.714844 68.105469 30.609375 C 68.089844 30.507812 68.058594 30.417969 68.023438 30.351562 C 67.984375 30.28125 67.933594 30.230469 67.859375 30.199219 C 67.796875 30.164062 67.710938 30.148438 67.601562 30.148438 C 67.558594 30.148438 67.511719 30.148438 67.460938 30.15625 C 67.414062 30.15625 67.367188 30.160156 67.320312 30.164062 C 67.269531 30.167969 67.230469 30.175781 67.195312 30.179688 C 67.152344 30.191406 67.132812 30.195312 67.121094 30.195312 L 67.121094 32.265625 L 66.683594 32.265625 Z M 66.683594 29.886719 " fill-opacity="1" fill-rule="nonzero"/><path fill="#ffffff" d="M 21.019531 27.125 L 18.796875 27.949219 L 15.886719 20.078125 L 18.113281 19.257812 Z M 17.480469 16.90625 C 17.632812 17.3125 17.617188 17.6875 17.441406 18.019531 C 17.261719 18.351562 16.996094 18.585938 16.636719 18.71875 C 16.277344 18.847656 15.921875 18.84375 15.574219 18.707031 C 15.21875 18.570312 14.972656 18.296875 14.820312 17.886719 C 14.667969 17.476562 14.683594 17.109375 14.859375 16.78125 C 15.039062 16.445312 15.304688 16.21875 15.664062 16.085938 C 16.023438 15.957031 16.378906 15.957031 16.726562 16.09375 C 17.082031 16.222656 17.328125 16.496094 17.480469 16.90625 Z M 17.480469 16.90625 " fill-opacity="1" fill-rule="nonzero"/></svg>