<svg xmlns="http://www.w3.org/2000/svg" xmlns:xlink="http://www.w3.org/1999/xlink" width="80" zoomAndPan="magnify" viewBox="0 0 60 30.000001" height="40" preserveAspectRatio="xMidYMid meet" version="1.0"><defs><clipPath id="92eed6a8db"><path d="M 25 21.3125 L 26 21.3125 L 26 23.324219 L 25 23.324219 Z M 25 21.3125 " clip-rule="nonzero"/></clipPath><clipPath id="2e92dcc8cd"><path d="M 10.371094 6.136719 L 23.996094 6.136719 L 23.996094 25.832031 L 10.371094 25.832031 Z M 10.371094 6.136719 " clip-rule="nonzero"/></clipPath></defs><path fill="#e77813" d="M 20.246094 5.203125 C 20.183594 5.484375 20.871094 5.605469 21.082031 5.410156 C 21.894531 4.667969 22.867188 3.804688 22.980469 2.710938 C 23.042969 2.121094 21.835938 1.335938 21.457031 1.792969 C 20.691406 2.714844 20.496094 4.113281 20.246094 5.203125 M 16.167969 5.105469 C 15.894531 3.816406 16.535156 2.40625 16.039062 1.375 C 15.785156 0.84375 13.941406 1.089844 13.984375 1.675781 C 14.082031 2.957031 14.734375 4.195312 15.1875 5.207031 C 15.324219 5.503906 16.234375 5.425781 16.167969 5.105469 Z M 11.152344 7.621094 C 10.214844 6.648438 9.816406 5.363281 9.007812 4.960938 C 8.378906 4.652344 7.257812 5.785156 7.507812 6.441406 C 7.914062 7.503906 9.230469 8.027344 10.3125 8.378906 C 10.671875 8.496094 11.414062 7.894531 11.152344 7.621094 Z M 9.007812 12.59375 C 7.972656 12.378906 6.765625 12.246094 5.835938 12.757812 C 5.402344 12.996094 5.539062 14.175781 6.03125 14.230469 C 7.039062 14.339844 8.148438 13.816406 9.125 13.4375 C 9.390625 13.335938 9.289062 12.648438 9.007812 12.59375 Z M 10.472656 17.460938 C 9.695312 17.902344 8.664062 18.035156 8.132812 18.554688 C 7.792969 18.886719 8.492188 19.898438 8.9375 19.734375 C 9.714844 19.445312 10.335938 18.585938 10.929688 18.046875 C 11.109375 17.878906 10.6875 17.339844 10.472656 17.460938 Z M 10.472656 17.460938 " fill-opacity="1" fill-rule="evenodd"/><g clip-path="url(#92eed6a8db)"><path fill="#e77813" d="M 25.242188 23.179688 C 25.71875 22.789062 26.058594 22.449219 26.054688 22.269531 C 26.054688 22.085938 25.652344 21.765625 25.074219 21.402344 C 25.089844 21.464844 25.101562 21.523438 25.117188 21.585938 C 25.210938 22.042969 25.25 22.515625 25.25 22.976562 C 25.25 23.046875 25.246094 23.113281 25.242188 23.179688 " fill-opacity="1" fill-rule="evenodd"/></g><path fill="#091540" d="M 21.980469 19.753906 C 22.542969 20.171875 22.359375 20.945312 22.070312 21.511719 C 22.566406 22.246094 22.554688 22.980469 22.09375 23.585938 C 22.546875 24.378906 22.421875 24.730469 22.253906 25.175781 C 22.703125 24.835938 23.765625 24.3125 24.710938 23.597656 C 24.75 23.390625 24.777344 23.183594 24.777344 22.976562 C 24.777344 22.542969 24.746094 22.101562 24.65625 21.683594 C 24.609375 21.464844 24.546875 21.25 24.46875 21.046875 C 23.597656 20.5625 22.746094 20.058594 21.980469 19.753906 " fill-opacity="1" fill-rule="evenodd"/><g clip-path="url(#2e92dcc8cd)"><path fill="#e77813" d="M 15.605469 23.628906 C 15.214844 23.609375 14.914062 23.277344 14.929688 22.886719 C 14.949219 22.496094 15.28125 22.195312 15.671875 22.214844 C 17.640625 22.3125 19.132812 22.128906 20.625 21.949219 L 20.625 21.945312 C 20.710938 21.9375 20.695312 21.9375 20.921875 21.910156 C 21.308594 21.863281 21.660156 22.140625 21.703125 22.527344 C 21.75 22.914062 21.472656 23.265625 21.085938 23.3125 C 21.058594 23.316406 21.074219 23.3125 20.796875 23.347656 L 20.792969 23.347656 C 19.234375 23.539062 17.675781 23.726562 15.605469 23.628906 M 16.269531 25.949219 C 15.878906 25.953125 15.5625 25.636719 15.5625 25.246094 C 15.5625 24.855469 15.878906 24.539062 16.269531 24.539062 C 16.339844 24.539062 16.421875 24.535156 16.511719 24.535156 C 16.695312 24.53125 16.90625 24.523438 17.132812 24.515625 C 17.320312 24.503906 17.542969 24.492188 17.792969 24.472656 C 18.875 24.390625 19.984375 24.234375 20.761719 24.019531 C 21.132812 23.914062 21.523438 24.136719 21.625 24.511719 C 21.730469 24.886719 21.507812 25.273438 21.136719 25.375 C 20.242188 25.625 19.035156 25.796875 17.898438 25.882812 C 17.691406 25.898438 17.457031 25.914062 17.199219 25.925781 C 16.988281 25.9375 16.761719 25.945312 16.535156 25.949219 C 16.449219 25.949219 16.359375 25.949219 16.269531 25.949219 Z M 23.878906 11.023438 C 24.019531 11.933594 22.625 12.160156 22.480469 11.246094 C 21.914062 8.527344 19.476562 7.429688 17.121094 7.625 C 14.90625 7.804688 12.59375 9.347656 12.042969 11.511719 C 11.753906 12.648438 11.996094 13.945312 12.613281 14.929688 C 13.191406 15.855469 14.015625 16.402344 14.820312 17.277344 C 14.957031 17.421875 15.082031 17.582031 15.199219 17.75 C 15.558594 18.273438 15.8125 18.886719 15.925781 19.496094 C 15.996094 19.867188 16.085938 19.964844 16.28125 19.984375 C 17.699219 20.113281 19.433594 20.03125 20.820312 19.738281 C 21.203125 19.660156 21.578125 19.902344 21.65625 20.285156 C 21.734375 20.664062 21.492188 21.039062 21.109375 21.121094 C 20.203125 21.3125 18.5 21.433594 16.933594 21.386719 C 16.601562 21.378906 16.296875 21.363281 16.03125 21.34375 C 15.515625 21.304688 14.457031 21.320312 14.570312 20.460938 C 14.648438 19.863281 14.441406 19.136719 14.039062 18.554688 C 13.136719 17.238281 11.976562 16.714844 11.214844 15.316406 C 10.59375 14.183594 10.351562 12.738281 10.601562 11.46875 C 11.1875 8.46875 14.292969 6.332031 17.359375 6.203125 C 20.339844 6.078125 23.308594 7.628906 23.878906 11.023438 Z M 23.878906 11.023438 " fill-opacity="1" fill-rule="evenodd"/></g><path fill="#091540" d="M 21.296875 13.246094 C 21.542969 13.175781 21.863281 13.109375 22.253906 13.050781 C 22.644531 12.984375 23.054688 12.953125 23.488281 12.953125 C 23.925781 12.953125 24.285156 13.011719 24.574219 13.125 C 24.867188 13.238281 25.097656 13.402344 25.265625 13.609375 C 25.4375 13.816406 25.558594 14.066406 25.628906 14.351562 C 25.699219 14.640625 25.738281 14.960938 25.738281 15.3125 L 25.738281 18.214844 L 24.277344 18.214844 L 24.277344 15.488281 C 24.277344 15.019531 24.214844 14.6875 24.09375 14.492188 C 23.96875 14.292969 23.738281 14.195312 23.398438 14.195312 C 23.292969 14.195312 23.183594 14.199219 23.066406 14.210938 C 22.949219 14.21875 22.84375 14.230469 22.75 14.246094 L 22.75 18.214844 L 21.296875 18.214844 Z M 21.296875 13.246094 " fill-opacity="1" fill-rule="nonzero"/><path fill="#091540" d="M 27.984375 11.789062 L 29.441406 11.554688 L 29.441406 13.070312 L 31.191406 13.070312 L 31.191406 14.285156 L 29.441406 14.285156 L 29.441406 16.09375 C 29.441406 16.402344 29.496094 16.644531 29.601562 16.828125 C 29.710938 17.011719 29.929688 17.101562 30.253906 17.101562 C 30.410156 17.101562 30.570312 17.085938 30.738281 17.058594 C 30.902344 17.027344 31.054688 16.988281 31.191406 16.933594 L 31.398438 18.070312 C 31.222656 18.140625 31.027344 18.203125 30.808594 18.253906 C 30.597656 18.308594 30.332031 18.335938 30.019531 18.335938 C 29.621094 18.335938 29.292969 18.28125 29.03125 18.171875 C 28.769531 18.066406 28.5625 17.914062 28.40625 17.722656 C 28.25 17.53125 28.140625 17.296875 28.078125 17.023438 C 28.015625 16.75 27.984375 16.445312 27.984375 16.113281 Z M 27.984375 11.789062 " fill-opacity="1" fill-rule="nonzero"/><path fill="#091540" d="M 37.746094 18.039062 C 37.496094 18.113281 37.179688 18.179688 36.785156 18.242188 C 36.394531 18.304688 35.984375 18.335938 35.554688 18.335938 C 35.117188 18.335938 34.753906 18.277344 34.464844 18.160156 C 34.171875 18.042969 33.941406 17.875 33.773438 17.664062 C 33.605469 17.453125 33.484375 17.199219 33.410156 16.90625 C 33.339844 16.613281 33.304688 16.289062 33.304688 15.9375 L 33.304688 13.070312 L 34.761719 13.070312 L 34.761719 15.761719 C 34.761719 16.230469 34.824219 16.570312 34.949219 16.78125 C 35.070312 16.988281 35.304688 17.089844 35.640625 17.089844 C 35.746094 17.089844 35.855469 17.085938 35.972656 17.078125 C 36.089844 17.066406 36.195312 17.054688 36.289062 17.042969 L 36.289062 13.070312 L 37.746094 13.070312 Z M 37.746094 18.039062 " fill-opacity="1" fill-rule="nonzero"/><path fill="#091540" d="M 40.042969 11.789062 L 41.5 11.554688 L 41.5 13.070312 L 43.25 13.070312 L 43.25 14.285156 L 41.5 14.285156 L 41.5 16.09375 C 41.5 16.402344 41.550781 16.644531 41.660156 16.828125 C 41.769531 17.011719 41.984375 17.101562 42.3125 17.101562 C 42.46875 17.101562 42.628906 17.085938 42.796875 17.058594 C 42.960938 17.027344 43.113281 16.988281 43.25 16.933594 L 43.457031 18.070312 C 43.28125 18.140625 43.085938 18.203125 42.867188 18.253906 C 42.652344 18.308594 42.390625 18.335938 42.078125 18.335938 C 41.679688 18.335938 41.347656 18.28125 41.085938 18.171875 C 40.828125 18.066406 40.621094 17.914062 40.464844 17.722656 C 40.308594 17.53125 40.199219 17.296875 40.132812 17.023438 C 40.074219 16.75 40.042969 16.445312 40.042969 16.113281 Z M 40.042969 11.789062 " fill-opacity="1" fill-rule="nonzero"/><path fill="#091540" d="M 50.222656 15.636719 C 50.222656 16.039062 50.164062 16.410156 50.046875 16.746094 C 49.929688 17.082031 49.761719 17.367188 49.539062 17.605469 C 49.316406 17.84375 49.050781 18.027344 48.742188 18.160156 C 48.433594 18.289062 48.085938 18.355469 47.699219 18.355469 C 47.320312 18.355469 46.976562 18.289062 46.667969 18.160156 C 46.355469 18.027344 46.089844 17.84375 45.871094 17.605469 C 45.648438 17.367188 45.476562 17.082031 45.351562 16.746094 C 45.226562 16.410156 45.167969 16.039062 45.167969 15.636719 C 45.167969 15.230469 45.230469 14.863281 45.359375 14.53125 C 45.484375 14.199219 45.660156 13.914062 45.886719 13.679688 C 46.109375 13.445312 46.378906 13.261719 46.6875 13.132812 C 46.996094 13 47.335938 12.933594 47.699219 12.933594 C 48.070312 12.933594 48.414062 13 48.722656 13.132812 C 49.03125 13.261719 49.296875 13.445312 49.519531 13.679688 C 49.742188 13.914062 49.914062 14.199219 50.035156 14.53125 C 50.160156 14.863281 50.222656 15.230469 50.222656 15.636719 Z M 48.738281 15.636719 C 48.738281 15.183594 48.648438 14.832031 48.464844 14.574219 C 48.289062 14.316406 48.03125 14.1875 47.699219 14.1875 C 47.367188 14.1875 47.109375 14.316406 46.925781 14.574219 C 46.742188 14.832031 46.652344 15.183594 46.652344 15.636719 C 46.652344 16.085938 46.742188 16.441406 46.925781 16.707031 C 47.109375 16.96875 47.367188 17.101562 47.699219 17.101562 C 48.03125 17.101562 48.289062 16.96875 48.464844 16.707031 C 48.648438 16.441406 48.738281 16.085938 48.738281 15.636719 Z M 48.738281 15.636719 " fill-opacity="1" fill-rule="nonzero"/><path fill="#091540" d="M 55.425781 14.363281 C 55.296875 14.332031 55.140625 14.296875 54.964844 14.261719 C 54.789062 14.222656 54.597656 14.207031 54.398438 14.207031 C 54.308594 14.207031 54.199219 14.214844 54.070312 14.230469 C 53.945312 14.25 53.847656 14.265625 53.78125 14.285156 L 53.78125 18.214844 L 52.324219 18.214844 L 52.324219 13.347656 C 52.585938 13.253906 52.894531 13.167969 53.25 13.085938 C 53.601562 13.003906 54 12.964844 54.4375 12.964844 C 54.515625 12.964844 54.609375 12.96875 54.71875 12.980469 C 54.832031 12.988281 54.941406 13 55.054688 13.015625 C 55.164062 13.035156 55.273438 13.054688 55.386719 13.078125 C 55.496094 13.101562 55.589844 13.128906 55.671875 13.160156 Z M 55.425781 14.363281 " fill-opacity="1" fill-rule="nonzero"/><path fill="#e77813" d="M 51.4375 21.664062 C 51.296875 21.664062 51.171875 21.640625 51.066406 21.597656 C 50.960938 21.550781 50.871094 21.488281 50.796875 21.410156 C 50.726562 21.332031 50.671875 21.234375 50.636719 21.121094 C 50.601562 21.011719 50.582031 20.890625 50.582031 20.753906 C 50.582031 20.621094 50.601562 20.5 50.640625 20.386719 C 50.679688 20.277344 50.734375 20.179688 50.804688 20.097656 C 50.878906 20.015625 50.964844 19.953125 51.070312 19.910156 C 51.171875 19.863281 51.289062 19.839844 51.414062 19.839844 C 51.492188 19.839844 51.574219 19.84375 51.648438 19.859375 C 51.726562 19.871094 51.804688 19.890625 51.875 19.921875 L 51.804688 20.1875 C 51.757812 20.164062 51.703125 20.148438 51.640625 20.132812 C 51.582031 20.117188 51.515625 20.113281 51.445312 20.113281 C 51.273438 20.113281 51.136719 20.167969 51.042969 20.277344 C 50.953125 20.386719 50.90625 20.546875 50.90625 20.753906 C 50.90625 20.847656 50.917969 20.933594 50.9375 21.015625 C 50.960938 21.089844 50.992188 21.160156 51.039062 21.214844 C 51.085938 21.273438 51.144531 21.316406 51.214844 21.34375 C 51.285156 21.375 51.375 21.390625 51.476562 21.390625 C 51.558594 21.390625 51.632812 21.382812 51.699219 21.367188 C 51.769531 21.351562 51.820312 21.335938 51.859375 21.316406 L 51.902344 21.578125 C 51.882812 21.589844 51.859375 21.597656 51.824219 21.609375 C 51.792969 21.617188 51.753906 21.628906 51.710938 21.636719 C 51.667969 21.644531 51.625 21.648438 51.574219 21.65625 C 51.527344 21.660156 51.480469 21.664062 51.4375 21.664062 Z M 51.4375 21.664062 " fill-opacity="1" fill-rule="nonzero"/><path fill="#e77813" d="M 52.238281 19.933594 C 52.308594 19.914062 52.402344 19.894531 52.519531 19.875 C 52.636719 19.855469 52.773438 19.84375 52.925781 19.84375 C 53.039062 19.84375 53.132812 19.859375 53.207031 19.890625 C 53.285156 19.921875 53.347656 19.964844 53.398438 20.023438 C 53.414062 20.011719 53.441406 19.996094 53.472656 19.976562 C 53.507812 19.957031 53.546875 19.9375 53.597656 19.917969 C 53.648438 19.898438 53.703125 19.882812 53.761719 19.867188 C 53.820312 19.851562 53.886719 19.84375 53.957031 19.84375 C 54.089844 19.84375 54.199219 19.863281 54.285156 19.902344 C 54.371094 19.941406 54.433594 19.996094 54.484375 20.070312 C 54.53125 20.140625 54.5625 20.226562 54.578125 20.324219 C 54.597656 20.421875 54.605469 20.53125 54.605469 20.644531 L 54.605469 21.625 L 54.292969 21.625 L 54.292969 20.710938 C 54.292969 20.609375 54.289062 20.523438 54.28125 20.449219 C 54.269531 20.375 54.25 20.3125 54.222656 20.265625 C 54.195312 20.214844 54.15625 20.179688 54.109375 20.15625 C 54.058594 20.132812 54 20.117188 53.921875 20.117188 C 53.816406 20.117188 53.730469 20.132812 53.664062 20.164062 C 53.59375 20.191406 53.546875 20.214844 53.523438 20.238281 C 53.542969 20.296875 53.554688 20.359375 53.5625 20.429688 C 53.574219 20.496094 53.578125 20.570312 53.578125 20.644531 L 53.578125 21.625 L 53.265625 21.625 L 53.265625 20.710938 C 53.265625 20.609375 53.257812 20.523438 53.25 20.449219 C 53.238281 20.375 53.21875 20.3125 53.191406 20.265625 C 53.164062 20.214844 53.125 20.179688 53.078125 20.15625 C 53.027344 20.132812 52.96875 20.117188 52.894531 20.117188 C 52.863281 20.117188 52.828125 20.121094 52.792969 20.125 C 52.757812 20.125 52.722656 20.128906 52.691406 20.132812 C 52.65625 20.132812 52.628906 20.136719 52.601562 20.144531 C 52.574219 20.148438 52.558594 20.152344 52.550781 20.152344 L 52.550781 21.625 L 52.238281 21.625 Z M 52.238281 19.933594 " fill-opacity="1" fill-rule="nonzero"/><path fill="#e77813" d="M 19.773438 17.96875 L 18.191406 18.554688 L 16.121094 12.960938 L 17.703125 12.375 Z M 17.257812 10.703125 C 17.363281 10.992188 17.351562 11.257812 17.226562 11.496094 C 17.101562 11.730469 16.910156 11.898438 16.65625 11.992188 C 16.402344 12.085938 16.148438 12.082031 15.898438 11.984375 C 15.648438 11.886719 15.46875 11.691406 15.363281 11.402344 C 15.257812 11.113281 15.265625 10.851562 15.394531 10.613281 C 15.519531 10.378906 15.710938 10.214844 15.964844 10.121094 C 16.21875 10.027344 16.472656 10.027344 16.722656 10.125 C 16.96875 10.222656 17.148438 10.414062 17.257812 10.703125 Z M 17.257812 10.703125 " fill-opacity="1" fill-rule="nonzero"/></svg>