<svg xmlns="http://www.w3.org/2000/svg" xmlns:xlink="http://www.w3.org/1999/xlink" width="100" zoomAndPan="magnify" viewBox="0 0 75 44.999999" height="60" preserveAspectRatio="xMidYMid meet" version="1.0"><defs><clipPath id="21d3ea6081"><path d="M 1 3.074219 L 26 3.074219 L 26 30 L 1 30 Z M 1 3.074219 " clip-rule="nonzero"/></clipPath><clipPath id="09bce029c9"><path d="M 28.585938 32 L 29.957031 32 L 29.957031 34.78125 L 28.585938 34.78125 Z M 28.585938 32 " clip-rule="nonzero"/></clipPath><clipPath id="fefa609c05"><path d="M 8 10.511719 L 27 10.511719 L 27 38.324219 L 8 38.324219 Z M 8 10.511719 " clip-rule="nonzero"/></clipPath></defs><g clip-path="url(#21d3ea6081)"><path fill="#004581" d="M 21.839844 9.195312 C 21.746094 9.585938 22.714844 9.761719 23.015625 9.484375 C 24.164062 8.441406 25.535156 7.222656 25.695312 5.671875 C 25.78125 4.839844 24.082031 3.734375 23.542969 4.378906 C 22.46875 5.683594 22.191406 7.65625 21.839844 9.195312 M 16.082031 9.058594 C 15.695312 7.238281 16.59375 5.242188 15.898438 3.789062 C 15.539062 3.042969 12.9375 3.386719 13 4.214844 C 13.136719 6.019531 14.054688 7.769531 14.695312 9.195312 C 14.886719 9.617188 16.171875 9.511719 16.082031 9.058594 Z M 8.996094 12.609375 C 7.675781 11.238281 7.109375 9.414062 5.972656 8.851562 C 5.082031 8.414062 3.5 10.015625 3.855469 10.945312 C 4.421875 12.441406 6.285156 13.183594 7.808594 13.675781 C 8.316406 13.84375 9.367188 12.996094 8.996094 12.609375 Z M 5.972656 19.628906 C 4.507812 19.324219 2.804688 19.140625 1.492188 19.859375 C 0.882812 20.195312 1.070312 21.863281 1.769531 21.9375 C 3.1875 22.09375 4.757812 21.355469 6.140625 20.820312 C 6.511719 20.671875 6.367188 19.707031 5.972656 19.628906 Z M 8.042969 26.503906 C 6.941406 27.121094 5.484375 27.316406 4.738281 28.046875 C 4.253906 28.515625 5.242188 29.941406 5.871094 29.707031 C 6.964844 29.300781 7.84375 28.085938 8.683594 27.324219 C 8.9375 27.09375 8.34375 26.332031 8.042969 26.503906 Z M 8.042969 26.503906 " fill-opacity="1" fill-rule="evenodd"/></g><g clip-path="url(#09bce029c9)"><path fill="#004581" d="M 28.886719 34.578125 C 29.566406 34.023438 30.039062 33.546875 30.039062 33.289062 C 30.039062 33.027344 29.46875 32.578125 28.652344 32.070312 C 28.671875 32.15625 28.691406 32.242188 28.710938 32.328125 C 28.84375 32.972656 28.894531 33.644531 28.894531 34.289062 C 28.894531 34.390625 28.894531 34.480469 28.886719 34.578125 " fill-opacity="1" fill-rule="evenodd"/></g><path fill="#018abd" d="M 24.28125 29.738281 C 25.078125 30.332031 24.816406 31.417969 24.410156 32.222656 C 25.113281 33.257812 25.09375 34.292969 24.449219 35.152344 C 25.082031 36.269531 24.910156 36.765625 24.664062 37.394531 C 25.300781 36.914062 26.804688 36.175781 28.140625 35.167969 C 28.195312 34.871094 28.234375 34.582031 28.234375 34.289062 C 28.234375 33.679688 28.183594 33.054688 28.0625 32.464844 C 27.996094 32.15625 27.910156 31.851562 27.792969 31.566406 C 26.566406 30.875 25.363281 30.167969 24.28125 29.738281 " fill-opacity="1" fill-rule="evenodd"/><g clip-path="url(#fefa609c05)"><path fill="#004581" d="M 15.285156 35.207031 C 14.730469 35.179688 14.308594 34.714844 14.332031 34.160156 C 14.359375 33.613281 14.828125 33.1875 15.375 33.214844 C 18.15625 33.347656 20.265625 33.089844 22.371094 32.835938 C 22.488281 32.820312 22.472656 32.824219 22.789062 32.785156 C 23.335938 32.71875 23.828125 33.109375 23.894531 33.652344 C 23.960938 34.203125 23.570312 34.699219 23.019531 34.765625 C 22.980469 34.769531 23.003906 34.765625 22.609375 34.816406 L 22.605469 34.816406 C 20.40625 35.078125 18.207031 35.347656 15.285156 35.207031 M 16.222656 38.488281 C 15.667969 38.488281 15.222656 38.046875 15.222656 37.496094 C 15.222656 36.945312 15.667969 36.496094 16.222656 36.492188 C 16.324219 36.492188 16.441406 36.492188 16.5625 36.492188 C 16.820312 36.488281 17.121094 36.476562 17.441406 36.460938 C 17.707031 36.445312 18.019531 36.425781 18.371094 36.398438 C 19.898438 36.285156 21.46875 36.066406 22.558594 35.761719 C 23.085938 35.613281 23.636719 35.929688 23.78125 36.457031 C 23.929688 36.984375 23.621094 37.53125 23.09375 37.679688 C 21.828125 38.023438 20.125 38.269531 18.515625 38.394531 C 18.226562 38.417969 17.898438 38.4375 17.539062 38.453125 C 17.234375 38.46875 16.917969 38.476562 16.59375 38.480469 C 16.476562 38.488281 16.347656 38.488281 16.222656 38.488281 Z M 26.960938 17.414062 C 27.164062 18.699219 25.195312 19.019531 24.984375 17.726562 C 24.195312 13.882812 20.75 12.339844 17.421875 12.613281 C 14.296875 12.867188 11.035156 15.046875 10.25 18.105469 C 9.84375 19.703125 10.191406 21.535156 11.058594 22.929688 C 11.875 24.234375 13.039062 25.003906 14.175781 26.238281 C 14.371094 26.445312 14.546875 26.671875 14.710938 26.910156 C 15.21875 27.652344 15.578125 28.515625 15.738281 29.371094 C 15.835938 29.898438 15.964844 30.039062 16.238281 30.0625 C 18.242188 30.246094 20.691406 30.128906 22.648438 29.71875 C 23.183594 29.605469 23.710938 29.949219 23.824219 30.488281 C 23.941406 31.027344 23.59375 31.554688 23.050781 31.667969 C 21.777344 31.941406 19.371094 32.109375 17.15625 32.042969 C 16.691406 32.03125 16.261719 32.011719 15.882812 31.980469 C 15.15625 31.925781 13.660156 31.953125 13.820312 30.734375 C 13.933594 29.890625 13.636719 28.871094 13.070312 28.042969 C 11.800781 26.1875 10.160156 25.453125 9.082031 23.476562 C 8.210938 21.871094 7.871094 19.832031 8.222656 18.039062 C 9.046875 13.800781 13.433594 10.785156 17.761719 10.609375 C 21.96875 10.429688 26.160156 12.621094 26.960938 17.414062 Z M 26.960938 17.414062 " fill-opacity="1" fill-rule="evenodd"/></g><path fill="#018abd" d="M 23.316406 20.550781 C 23.664062 20.449219 24.117188 20.359375 24.671875 20.273438 C 25.222656 20.179688 25.804688 20.140625 26.414062 20.140625 C 27.027344 20.140625 27.539062 20.222656 27.945312 20.378906 C 28.355469 20.542969 28.683594 20.769531 28.921875 21.0625 C 29.164062 21.359375 29.332031 21.710938 29.433594 22.109375 C 29.535156 22.515625 29.585938 22.96875 29.585938 23.464844 L 29.585938 27.570312 L 27.53125 27.570312 L 27.53125 23.714844 C 27.53125 23.050781 27.4375 22.582031 27.265625 22.308594 C 27.085938 22.027344 26.761719 21.890625 26.285156 21.890625 C 26.136719 21.890625 25.980469 21.898438 25.820312 21.914062 C 25.652344 21.921875 25.503906 21.941406 25.371094 21.964844 L 25.371094 27.570312 L 23.316406 27.570312 Z M 23.316406 20.550781 " fill-opacity="1" fill-rule="nonzero"/><path fill="#018abd" d="M 32.757812 18.496094 L 34.816406 18.164062 L 34.816406 20.300781 L 37.289062 20.300781 L 37.289062 22.019531 L 34.816406 22.019531 L 34.816406 24.574219 C 34.816406 25.003906 34.890625 25.351562 35.042969 25.609375 C 35.195312 25.863281 35.503906 25.996094 35.960938 25.996094 C 36.1875 25.996094 36.414062 25.976562 36.648438 25.929688 C 36.882812 25.886719 37.09375 25.832031 37.289062 25.757812 L 37.578125 27.359375 C 37.328125 27.460938 37.054688 27.550781 36.75 27.621094 C 36.445312 27.695312 36.074219 27.738281 35.632812 27.738281 C 35.070312 27.738281 34.605469 27.660156 34.238281 27.507812 C 33.871094 27.355469 33.578125 27.144531 33.351562 26.867188 C 33.132812 26.597656 32.976562 26.269531 32.890625 25.882812 C 32.804688 25.496094 32.757812 25.070312 32.757812 24.597656 Z M 32.757812 18.496094 " fill-opacity="1" fill-rule="nonzero"/><path fill="#018abd" d="M 46.539062 27.320312 C 46.1875 27.421875 45.738281 27.511719 45.183594 27.601562 C 44.632812 27.691406 44.054688 27.738281 43.445312 27.738281 C 42.828125 27.738281 42.3125 27.652344 41.90625 27.488281 C 41.496094 27.320312 41.171875 27.085938 40.933594 26.789062 C 40.695312 26.488281 40.523438 26.132812 40.421875 25.714844 C 40.320312 25.304688 40.269531 24.847656 40.269531 24.351562 L 40.269531 20.300781 L 42.324219 20.300781 L 42.324219 24.101562 C 42.324219 24.761719 42.414062 25.242188 42.589844 25.539062 C 42.765625 25.832031 43.089844 25.980469 43.570312 25.980469 C 43.714844 25.980469 43.871094 25.976562 44.035156 25.960938 C 44.203125 25.945312 44.351562 25.929688 44.480469 25.910156 L 44.480469 20.300781 L 46.539062 20.300781 Z M 46.539062 27.320312 " fill-opacity="1" fill-rule="nonzero"/><path fill="#018abd" d="M 49.78125 18.496094 L 51.839844 18.164062 L 51.839844 20.300781 L 54.3125 20.300781 L 54.3125 22.019531 L 51.839844 22.019531 L 51.839844 24.574219 C 51.839844 25.003906 51.914062 25.351562 52.066406 25.609375 C 52.21875 25.863281 52.523438 25.996094 52.988281 25.996094 C 53.203125 25.996094 53.433594 25.976562 53.667969 25.929688 C 53.90625 25.886719 54.117188 25.832031 54.3125 25.757812 L 54.601562 27.359375 C 54.351562 27.460938 54.078125 27.550781 53.773438 27.621094 C 53.46875 27.695312 53.097656 27.738281 52.65625 27.738281 C 52.09375 27.738281 51.625 27.660156 51.261719 27.507812 C 50.890625 27.355469 50.59375 27.144531 50.375 26.867188 C 50.152344 26.597656 50 26.269531 49.910156 25.882812 C 49.824219 25.496094 49.78125 25.070312 49.78125 24.597656 Z M 49.78125 18.496094 " fill-opacity="1" fill-rule="nonzero"/><path fill="#018abd" d="M 64.15625 23.921875 C 64.15625 24.492188 64.070312 25.015625 63.902344 25.492188 C 63.738281 25.964844 63.5 26.371094 63.1875 26.707031 C 62.878906 27.042969 62.5 27.300781 62.066406 27.488281 C 61.628906 27.671875 61.136719 27.761719 60.59375 27.761719 C 60.058594 27.761719 59.570312 27.671875 59.136719 27.488281 C 58.699219 27.300781 58.324219 27.042969 58.007812 26.707031 C 57.699219 26.371094 57.453125 25.964844 57.277344 25.492188 C 57.105469 25.015625 57.019531 24.492188 57.019531 23.921875 C 57.019531 23.347656 57.105469 22.832031 57.285156 22.363281 C 57.464844 21.890625 57.714844 21.492188 58.027344 21.160156 C 58.347656 20.832031 58.730469 20.570312 59.164062 20.390625 C 59.601562 20.199219 60.078125 20.109375 60.59375 20.109375 C 61.121094 20.109375 61.597656 20.199219 62.035156 20.390625 C 62.476562 20.570312 62.847656 20.832031 63.160156 21.160156 C 63.476562 21.492188 63.71875 21.890625 63.890625 22.363281 C 64.066406 22.832031 64.15625 23.347656 64.15625 23.921875 Z M 62.058594 23.921875 C 62.058594 23.289062 61.925781 22.785156 61.671875 22.425781 C 61.417969 22.058594 61.058594 21.875 60.59375 21.875 C 60.121094 21.875 59.757812 22.058594 59.5 22.425781 C 59.242188 22.785156 59.113281 23.289062 59.113281 23.921875 C 59.113281 24.558594 59.242188 25.0625 59.5 25.4375 C 59.757812 25.808594 60.121094 25.996094 60.59375 25.996094 C 61.058594 25.996094 61.417969 25.808594 61.671875 25.4375 C 61.925781 25.0625 62.058594 24.558594 62.058594 23.921875 Z M 62.058594 23.921875 " fill-opacity="1" fill-rule="nonzero"/><path fill="#018abd" d="M 71.5 22.125 C 71.316406 22.078125 71.097656 22.035156 70.847656 21.984375 C 70.597656 21.933594 70.332031 21.902344 70.046875 21.902344 C 69.917969 21.902344 69.765625 21.917969 69.589844 21.941406 C 69.40625 21.964844 69.269531 21.988281 69.179688 22.019531 L 69.179688 27.570312 L 67.121094 27.570312 L 67.121094 20.695312 C 67.492188 20.5625 67.921875 20.441406 68.425781 20.328125 C 68.925781 20.210938 69.488281 20.148438 70.101562 20.148438 C 70.214844 20.148438 70.34375 20.160156 70.503906 20.171875 C 70.660156 20.1875 70.816406 20.207031 70.976562 20.226562 C 71.132812 20.25 71.285156 20.277344 71.441406 20.3125 C 71.601562 20.34375 71.730469 20.382812 71.84375 20.429688 Z M 71.5 22.125 " fill-opacity="1" fill-rule="nonzero"/><path fill="#004581" d="M 65.867188 32.433594 C 65.667969 32.433594 65.496094 32.402344 65.34375 32.34375 C 65.195312 32.277344 65.070312 32.191406 64.96875 32.078125 C 64.863281 31.960938 64.785156 31.828125 64.734375 31.671875 C 64.691406 31.515625 64.664062 31.34375 64.664062 31.15625 C 64.664062 30.960938 64.691406 30.789062 64.746094 30.632812 C 64.800781 30.472656 64.878906 30.34375 64.980469 30.226562 C 65.082031 30.109375 65.203125 30.023438 65.347656 29.957031 C 65.496094 29.890625 65.660156 29.859375 65.835938 29.859375 C 65.949219 29.859375 66.058594 29.863281 66.167969 29.886719 C 66.277344 29.90625 66.386719 29.929688 66.488281 29.972656 L 66.386719 30.347656 C 66.320312 30.316406 66.242188 30.292969 66.15625 30.277344 C 66.070312 30.253906 65.980469 30.246094 65.882812 30.246094 C 65.632812 30.246094 65.445312 30.320312 65.3125 30.472656 C 65.1875 30.632812 65.121094 30.855469 65.121094 31.15625 C 65.121094 31.285156 65.136719 31.410156 65.167969 31.519531 C 65.191406 31.625 65.242188 31.722656 65.304688 31.800781 C 65.371094 31.878906 65.449219 31.941406 65.550781 31.988281 C 65.652344 32.027344 65.78125 32.046875 65.921875 32.046875 C 66.039062 32.046875 66.148438 32.039062 66.238281 32.019531 C 66.335938 31.992188 66.410156 31.972656 66.460938 31.945312 L 66.523438 32.3125 C 66.496094 32.328125 66.460938 32.34375 66.414062 32.359375 C 66.371094 32.375 66.3125 32.382812 66.253906 32.394531 C 66.191406 32.410156 66.132812 32.414062 66.058594 32.425781 C 65.996094 32.429688 65.933594 32.433594 65.867188 32.433594 Z M 65.867188 32.433594 " fill-opacity="1" fill-rule="nonzero"/><path fill="#004581" d="M 67 29.992188 C 67.097656 29.960938 67.234375 29.9375 67.394531 29.910156 C 67.5625 29.878906 67.757812 29.871094 67.96875 29.871094 C 68.125 29.871094 68.257812 29.890625 68.367188 29.929688 C 68.476562 29.972656 68.570312 30.039062 68.640625 30.117188 C 68.660156 30.101562 68.695312 30.078125 68.742188 30.050781 C 68.792969 30.023438 68.847656 29.996094 68.917969 29.972656 C 68.988281 29.941406 69.066406 29.921875 69.152344 29.898438 C 69.234375 29.878906 69.324219 29.871094 69.421875 29.871094 C 69.613281 29.871094 69.765625 29.894531 69.886719 29.949219 C 70.011719 30 70.101562 30.082031 70.167969 30.183594 C 70.234375 30.285156 70.28125 30.40625 70.304688 30.546875 C 70.332031 30.683594 70.339844 30.835938 70.339844 30.996094 L 70.339844 32.378906 L 69.902344 32.378906 L 69.902344 31.089844 C 69.902344 30.945312 69.894531 30.824219 69.878906 30.71875 C 69.867188 30.617188 69.835938 30.523438 69.796875 30.457031 C 69.761719 30.386719 69.707031 30.335938 69.640625 30.304688 C 69.574219 30.269531 69.480469 30.253906 69.375 30.253906 C 69.230469 30.253906 69.105469 30.277344 69.011719 30.316406 C 68.914062 30.351562 68.847656 30.386719 68.816406 30.421875 C 68.835938 30.503906 68.859375 30.597656 68.867188 30.691406 C 68.882812 30.789062 68.886719 30.890625 68.886719 30.996094 L 68.886719 32.378906 L 68.453125 32.378906 L 68.453125 31.089844 C 68.453125 30.945312 68.441406 30.824219 68.425781 30.71875 C 68.410156 30.617188 68.378906 30.523438 68.34375 30.457031 C 68.304688 30.386719 68.253906 30.335938 68.183594 30.304688 C 68.117188 30.269531 68.03125 30.253906 67.921875 30.253906 C 67.878906 30.253906 67.832031 30.253906 67.78125 30.261719 C 67.734375 30.261719 67.683594 30.265625 67.640625 30.269531 C 67.589844 30.277344 67.546875 30.28125 67.511719 30.285156 C 67.472656 30.296875 67.453125 30.300781 67.441406 30.300781 L 67.441406 32.378906 L 67 32.378906 Z M 67 29.992188 " fill-opacity="1" fill-rule="nonzero"/><path fill="#004581" d="M 21.167969 27.21875 L 18.933594 28.046875 L 16.015625 20.144531 L 18.25 19.324219 Z M 17.613281 16.960938 C 17.765625 17.367188 17.75 17.742188 17.574219 18.078125 C 17.394531 18.414062 17.125 18.648438 16.765625 18.777344 C 16.40625 18.910156 16.050781 18.90625 15.699219 18.769531 C 15.34375 18.632812 15.09375 18.359375 14.941406 17.945312 C 14.789062 17.535156 14.804688 17.164062 14.984375 16.835938 C 15.160156 16.5 15.429688 16.269531 15.789062 16.136719 C 16.152344 16.007812 16.507812 16.007812 16.855469 16.144531 C 17.210938 16.277344 17.460938 16.550781 17.613281 16.960938 Z M 17.613281 16.960938 " fill-opacity="1" fill-rule="nonzero"/></svg>